<svg width="1200px" height="1200px" viewBox="0 0 1200 1200" xmlns="http://www.w3.org/2000/svg" xmlns:xlink="http://www.w3.org/1999/xlink">
  <g id="f8e21803-d9b4-4cb1-a375-94d7a006084d">
<rect style="stroke: rgb(193,193,193); stroke-width: 0; stroke-dasharray: none; stroke-linecap: butt; stroke-dashoffset: 0; stroke-linejoin: miter; stroke-miterlimit: 4; fill: rgb(255,255,255); fill-rule: nonzero; opacity: 0;" x="-600" y="-600" rx="0" ry="0" width="1200" height="1200" transform="matrix(1 0 0 1 600 600)"/>
</g>
<g id="7aIR2Gx40c3h-hZfGpsAe">
<g style="">
		<g id="0GqUB1l9EWYPzzXcC6U4y">
<path style="stroke: rgb(193,193,193); stroke-width: 0; stroke-dasharray: none; stroke-linecap: butt; stroke-dashoffset: 0; stroke-linejoin: miter; stroke-miterlimit: 4; fill: rgb(0,0,0); fill-rule: nonzero; opacity: 1;" transform="matrix(1.713735 0 0 1.713736 600 600) matrix(1 0 0 1 0 0)  translate(-317.825, -103.7)" d="M 2.69 170.50 L 2.93 181.98 L 3.06 186.50 L 3.17 189.21 L 3.24 190.32 L 3.37 192.35 L 3.44 193.03 L 3.51 193.64 L 3.54 193.84 L 3.61 194.18 L 3.64 194.23 L 4.15 194.79 L 4.51 194.90 L 5.27 195.02 L 5.68 194.93 L 6.51 194.67 L 6.88 194.40 L 7.58 193.78 L 7.82 193.35 L 8.74 192.15 L 9.83 190.89 L 10.56 190.10 L 12.12 188.42 L 13.01 187.48 L 14.22 186.24 L 12.45 188.17 L 11.39 189.36 L 9.33 191.85 L 8.32 193.09 L 6.56 195.45 L 4.52 198.53 L 4.05 199.34 L 3.22 200.72 L 2.82 201.38 L 2.14 202.46 L 1.82 202.96 L 1.29 203.73 L 1.04 204.08 L 0.66 204.55 L 0.49 204.75 L 0.26 204.91 L 0.17 204.96 L 0.09 204.82 L 0.07 204.71 L 0.14 204.26 L 0.19 204.00 L 0.42 203.25 L 0.85 201.87 L 1.56 198.60 L 1.89 196.89 L 2.37 193.10 L 2.58 191.15 L 2.82 186.99 L 2.88 180.50 L 2.67 170.50 L 5.32 163.65 M 15.57 184.86 L 15.56 184.87 L 15.75 184.68 M 24.73 141.24 L 25.14 141.51 L 25.29 141.76 L 25.57 142.34 L 25.65 142.76 L 25.77 143.69 L 25.76 144.29 L 25.71 145.58 L 25.61 146.37 L 25.36 148.03 L 25.16 149.02 L 23.79 154.44 L 22.70 157.73 L 22.06 159.21 L 20.73 162.06 L 19.98 163.32 L 18.42 165.73 L 17.55 166.76 L 16.02 168.46 L 15.38 169.05 L 14.76 169.58 L 14.52 169.74 L 14.09 170.00 L 13.98 170.00 L 13.38 169.81 L 13.05 169.49 L 12.92 169.25 L 12.52 168.06 L 12.47 167.17 L 12.47 165.22 L 12.63 164.01 L 13.05 161.47 L 13.41 160.03 L 15.28 154.12 L 16.73 150.58 L 17.51 149.06 L 19.08 146.20 L 19.86 145.07 L 21.40 143.03 L 22.11 142.37 L 22.79 141.78 L 23.11 141.58 L 23.72 141.25 L 24.00 141.19 L 24.52 141.15 M 56.93 2.79 L 57.22 3.03 L 58.03 3.91 L 58.46 4.40 L 59.51 5.70 L 60.06 6.39 L 61.28 8.01 L 61.90 8.86 L 63.21 10.72 L 67.12 16.74 L 68.69 19.32 L 71.57 24.77 L 72.97 27.53 L 75.51 33.26 L 76.73 36.15 L 78.88 42.05 L 79.91 45.01 L 81.64 50.96 L 82.46 53.94 L 83.75 59.83 L 84.34 62.76 L 85.15 68.47 L 85.50 71.30 L 85.80 76.72 L 85.65 84.40 L 85.43 87.33 L 84.64 92.94 L 84.19 95.71 L 82.97 101.00 L 82.30 103.61 L 80.64 108.56 L 79.75 110.99 L 77.67 115.58 L 76.57 117.83 L 74.07 122.04 L 72.76 124.10 L 69.85 127.92 L 68.35 129.78 L 65.04 133.19 L 59.63 137.81 L 58.16 138.92 L 54.47 141.29 L 52.54 142.48 L 48.37 144.78 L 46.27 145.89 L 42.20 147.81 L 41.21 148.25 L 39.36 149.01 L 36.84 149.92 L 35.95 150.21 L 34.67 150.85 L 34.37 151.05 L 33.81 151.60 L 33.53 151.91 L 32.97 152.75 L 32.69 153.22 L 32.07 154.45 L 31.75 155.13 L 31.00 156.85 L 30.61 157.79 L 29.68 160.11 L 28.74 162.51 L 40.15 133.08 L 40.33 133.04 L 40.52 132.97 L 41.13 132.59 L 41.46 132.36 L 42.28 131.71 L 43.15 131.01 L 45.26 129.06 L 48.40 125.79 L 49.53 124.50 L 51.63 121.69 L 52.65 120.25 L 54.53 117.16 L 55.44 115.59 L 57.09 112.22 L 57.89 110.51 L 59.32 106.88 L 60.01 105.04 L 61.21 101.15 L 61.79 99.18 L 62.76 95.05 L 63.23 92.96 L 63.98 88.59 L 64.33 86.37 L 64.85 81.77 L 65.09 79.45 L 65.39 74.63 L 65.51 72.19 L 65.58 67.16 L 65.58 64.61 L 65.42 59.38 L 65.31 56.74 L 64.92 51.31 L 64.70 48.57 L 64.08 42.95 L 63.74 40.12 L 62.88 34.33 L 62.42 31.41 L 61.34 25.45 L 59.44 16.33 L 59.08 14.74 L 58.39 11.71 L 58.06 10.24 L 57.46 7.68 L 57.18 6.49 L 56.75 4.68 L 56.65 4.29 L 56.50 3.70 L 56.35 3.13 L 56.23 2.74 L 56.33 2.48 L 56.43 2.44 M 271.98 116.69 L 271.98 118.18 L 271.97 120.93 L 271.97 122.26 L 271.96 124.72 L 271.95 127.10 L 271.91 131.07 L 271.89 132.93 L 271.81 135.98 L 271.77 137.41 L 271.65 139.71 L 271.59 140.78 L 271.42 142.49 L 271.33 143.28 L 271.10 144.56 L 270.12 147.54 L 269.41 149.11 L 267.69 151.67 L 266.78 152.85 L 264.67 154.63 L 263.57 155.42 L 261.08 156.41 L 256.92 157.00 L 252.00 157.00 L 252.00 152.85 L 252.10 151.77 L 252.18 151.30 L 252.54 150.67 L 252.78 150.39 L 253.56 150.03 L 255.36 149.59 L 256.24 149.43 L 257.68 149.08 L 258.35 148.89 L 259.43 148.30 L 259.93 147.96 L 260.70 146.89 L 261.06 146.27 L 261.59 144.48 L 261.72 143.97 L 261.92 142.79 L 262.02 142.16 L 262.18 140.71 L 262.26 139.95 L 262.39 138.20 L 262.45 137.29 L 262.55 135.22 L 262.60 134.14 L 262.69 131.72 L 262.73 130.46 L 262.80 127.66 L 262.83 126.20 L 262.90 122.98 L 263.00 117.65 L 263.50 90.50 L 272.00 89.89 M 566.96 102.59 L 567.50 103.68 L 568.50 105.68 L 568.98 106.64 L 569.87 108.36 L 570.30 109.18 L 571.08 110.62 L 571.46 111.30 L 572.13 112.44 L 572.44 112.97 L 572.98 113.80 L 573.24 114.18 L 573.65 114.69 L 573.84 114.91 L 574.12 115.10 L 574.37 115.00 L 574.46 114.79 L 574.84 113.75 L 575.06 113.14 L 575.66 111.44 L 575.98 110.54 L 576.72 108.42 L 577.90 105.00 L 578.25 103.98 L 578.88 102.14 L 579.18 101.25 L 579.72 99.66 L 580.25 98.13 L 581.08 95.76 L 581.48 94.67 L 582.13 93.07 L 582.44 92.35 L 583.00 91.37 L 583.28 90.94 L 583.85 90.44 L 584.14 90.23 L 584.82 90.05 L 585.18 89.98 L 586.06 89.97 L 587.70 90.00 L 588.50 90.00 L 589.72 90.07 L 590.28 90.12 L 591.05 90.30 L 591.38 90.40 L 591.72 90.68 L 591.78 91.25 L 591.75 91.34 L 591.53 91.97 L 591.39 92.35 L 590.98 93.53 L 590.76 94.18 L 590.18 95.85 L 589.87 96.73 L 589.14 98.82 L 588.76 99.90 L 587.92 102.34 L 587.48 103.59 L 586.53 106.32 L 583.42 115.25 L 582.34 118.38 L 580.31 124.08 L 579.82 125.44 L 578.91 127.95 L 578.47 129.16 L 577.67 131.32 L 577.28 132.35 L 576.61 134.10 L 576.30 134.92 L 575.78 136.20 L 575.55 136.78 L 575.22 137.54 L 574.94 138.00 L 574.90 138.00 L 574.68 137.70 L 574.55 137.50 L 574.16 136.84 L 573.95 136.46 L 573.42 135.47 L 573.13 134.94 L 572.47 133.67 L 571.79 132.33 L 570.12 128.98 L 567.35 123.25 L 560.33 108.50 L 552.76 123.50 L 551.82 125.36 L 550.27 128.41 L 549.55 129.83 L 548.39 132.07 L 547.85 133.10 L 547.00 134.62 L 546.60 135.30 L 546.00 136.20 L 545.73 136.57 L 545.31 136.93 L 545.11 137.06 L 544.81 136.97 L 544.66 136.88 L 544.40 136.45 L 544.27 136.20 L 544.00 135.50 L 543.92 135.29 L 543.62 134.50 L 543.45 134.04 L 543.00 132.80 L 542.75 132.12 L 542.17 130.48 L 541.86 129.62 L 541.16 127.65 L 540.43 125.61 L 538.74 120.81 L 536.00 113.00 L 535.06 110.32 L 533.30 105.29 L 532.87 104.07 L 532.07 101.81 L 531.68 100.70 L 530.97 98.70 L 530.63 97.73 L 530.03 96.04 L 529.75 95.24 L 529.28 93.93 L 529.07 93.33 L 528.75 92.45 L 528.46 91.69 L 528.30 91.29 L 528.22 90.73 L 528.24 90.50 L 528.64 90.23 L 528.92 90.13 L 529.98 90.08 L 532.50 90.19 L 537.25 90.50 L 541.80 103.40 L 546.34 116.29 L 553.26 102.48 L 560.18 88.67 M 622.08 89.86 L 623.30 90.03 L 625.63 90.68 L 626.77 91.06 L 628.87 92.10 L 631.62 94.11 L 632.38 94.82 L 633.31 95.87 L 633.68 96.35 L 633.82 97.14 L 633.79 97.54 L 633.11 98.35 L 631.16 99.89 L 628.32 101.91 L 624.15 99.84 L 623.00 99.27 L 620.62 98.62 L 619.43 98.37 L 617.14 98.35 L 616.02 98.42 L 614.01 99.02 L 611.53 100.61 L 611.22 100.92 L 610.81 101.55 L 610.65 101.87 L 610.56 102.50 L 610.55 102.81 L 610.77 103.45 L 610.92 103.77 L 611.46 104.41 L 611.77 104.74 L 612.64 105.40 L 613.11 105.73 L 614.31 106.41 L 614.95 106.75 L 616.47 107.46 L 619.15 108.56 L 621.28 109.37 L 625.02 111.30 L 626.80 112.30 L 629.74 114.54 L 631.11 115.69 L 633.16 118.15 L 635.12 122.01 L 635.49 123.24 L 635.58 125.59 L 635.53 126.74 L 634.85 128.87 L 634.42 129.90 L 633.06 131.75 L 632.31 132.64 L 630.36 134.14 L 629.32 134.85 L 626.88 135.95 L 625.60 136.45 L 622.76 137.08 L 621.30 137.33 L 618.15 137.43 L 616.55 137.41 L 613.18 136.92 L 611.48 136.59 L 608.08 135.25 L 606.43 134.49 L 603.53 132.58 L 602.86 132.09 L 601.69 131.05 L 601.13 130.52 L 600.26 129.47 L 599.86 128.94 L 599.33 127.91 L 599.00 126.45 L 599.00 126.29 L 599.29 125.93 L 599.48 125.74 L 600.08 125.33 L 602.67 124.21 L 603.41 123.98 L 604.55 123.71 L 605.06 123.60 L 605.83 123.58 L 606.19 123.60 L 606.73 123.85 L 607.42 124.51 L 607.59 124.74 L 608.16 125.23 L 608.48 125.48 L 609.28 125.99 L 610.13 126.49 L 612.24 127.44 L 613.32 127.89 L 615.52 128.56 L 618.32 129.00 L 619.34 129.00 L 621.40 128.65 L 622.41 128.42 L 624.19 127.73 L 625.02 127.36 L 626.22 126.47 L 627.00 125.08 L 627.00 124.39 L 626.26 122.99 L 625.77 122.28 L 624.01 120.81 L 623.51 120.44 L 622.31 119.68 L 621.67 119.29 L 620.20 118.50 L 619.43 118.10 L 617.69 117.28 L 614.77 116.02 L 613.56 115.52 L 611.45 114.55 L 610.44 114.06 L 608.70 113.10 L 607.88 112.61 L 606.49 111.61 L 605.84 111.11 L 604.77 110.07 L 604.27 109.53 L 603.50 108.40 L 603.14 107.83 L 602.64 106.59 L 602.42 105.95 L 602.15 104.58 L 602.00 102.32 L 602.00 101.38 L 602.13 99.89 L 602.22 99.20 L 602.61 98.03 L 602.85 97.46 L 603.61 96.36 L 605.28 94.52 L 606.08 93.72 L 607.97 92.42 L 608.96 91.82 L 611.16 90.91 L 612.29 90.50 L 614.68 89.97 L 615.89 89.76 L 618.38 89.62 L 619.62 89.60 M 520.00 136.00 L 514.55 136.00 L 513.19 135.93 L 512.59 135.87 L 511.82 135.64 L 511.50 135.50 L 511.17 135.04 L 511.00 134.03 L 511.00 133.56 L 510.90 132.98 L 510.81 132.75 L 510.35 132.68 L 510.04 132.71 L 508.96 133.18 L 508.64 133.34 L 507.83 133.75 L 506.35 134.53 L 504.74 135.39 L 501.31 136.45 L 499.57 136.87 L 495.98 137.07 L 494.18 137.05 L 490.54 136.38 L 488.73 135.94 L 485.17 134.40 L 483.39 133.51 L 480.34 131.22 L 478.90 130.01 L 476.56 127.17 L 475.48 125.71 L 473.87 122.48 L 473.16 120.83 L 472.32 117.36 L 472.00 115.61 L 471.94 112.05 L 472.02 110.27 L 472.79 106.76 L 473.28 105.03 L 474.89 101.72 L 478.30 97.16 L 479.37 96.04 L 481.60 94.18 L 482.73 93.30 L 485.09 91.92 L 486.28 91.30 L 488.76 90.40 L 490.02 90.02 L 492.63 89.62 L 493.96 89.48 L 496.71 89.56 L 498.11 89.67 L 501.00 90.24 L 502.47 90.59 L 505.51 91.65 L 510.25 93.78 L 510.35 93.83 L 510.54 93.73 L 510.63 93.64 L 510.78 93.29 L 511.00 91.58 L 511.00 90.98 L 511.12 90.17 L 511.21 89.81 L 511.69 89.39 L 511.99 89.22 L 513.04 89.07 L 515.50 89.00 L 520.00 89.00 M 309.22 89.42 L 310.24 89.58 L 312.27 90.13 L 313.27 90.44 L 315.24 91.25 L 317.19 92.13 L 320.75 94.56 L 321.60 95.21 L 323.17 96.65 L 323.94 97.40 L 325.30 98.99 L 325.96 99.81 L 327.08 101.53 L 328.45 104.22 L 328.87 105.22 L 329.43 107.43 L 329.66 108.55 L 329.87 110.94 L 329.93 112.14 L 329.81 114.61 L 329.70 115.85 L 329.26 118.31 L 329.01 119.54 L 328.27 121.91 L 327.87 123.08 L 326.86 125.26 L 326.32 126.32 L 325.05 128.23 L 322.88 130.69 L 322.09 131.41 L 320.27 132.69 L 319.32 133.30 L 317.24 134.34 L 316.17 134.82 L 313.91 135.60 L 312.77 135.95 L 310.41 136.45 L 309.22 136.67 L 306.85 136.88 L 305.67 136.95 L 303.35 136.87 L 302.20 136.79 L 300.03 136.38 L 298.96 136.14 L 297.00 135.41 L 296.10 135.02 L 294.36 134.02 L 293.50 133.49 L 291.87 132.23 L 290.27 130.91 L 287.50 127.66 L 286.20 125.96 L 284.23 122.17 L 283.80 121.21 L 283.12 119.23 L 282.42 116.22 L 282.13 114.43 L 282.33 110.86 L 282.54 109.09 L 283.63 105.67 L 284.27 103.98 L 286.11 100.84 L 287.12 99.32 L 289.59 96.59 L 290.89 95.29 L 293.84 93.11 L 295.36 92.11 L 298.67 90.63 L 300.35 89.98 L 303.86 89.33 M 227.81 89.58 L 229.27 89.76 L 232.14 90.53 L 233.55 90.99 L 236.29 92.32 L 240.16 94.96 L 240.56 95.30 L 241.45 96.22 L 241.91 96.72 L 242.85 97.90 L 243.81 99.13 L 245.59 101.85 L 246.00 102.52 L 246.71 103.79 L 247.04 104.40 L 247.54 105.48 L 247.75 105.98 L 247.95 106.74 L 247.86 107.43 L 247.84 107.45 L 247.44 107.62 L 247.19 107.72 L 246.38 108.04 L 245.93 108.22 L 244.75 108.67 L 244.12 108.91 L 242.62 109.48 L 241.83 109.77 L 240.06 110.44 L 239.14 110.78 L 237.14 111.52 L 230.52 113.96 L 228.18 114.81 L 223.87 116.40 L 221.80 117.17 L 218.31 118.48 L 217.51 118.78 L 216.13 119.30 L 215.48 119.55 L 214.43 119.95 L 213.96 120.14 L 213.30 120.40 L 212.81 120.62 L 212.48 120.82 L 212.35 121.52 L 212.38 121.90 L 212.90 122.85 L 213.24 123.34 L 214.32 124.40 L 216.47 125.98 L 217.38 126.54 L 219.83 127.33 L 221.12 127.66 L 223.93 127.96 L 225.34 128.04 L 228.01 127.82 L 231.32 126.88 L 231.92 126.57 L 233.64 125.36 L 236.17 123.27 L 236.83 122.66 L 237.75 121.87 L 238.17 121.56 L 238.89 121.34 L 239.25 121.30 L 240.10 121.60 L 241.92 122.61 L 242.76 123.11 L 244.09 124.21 L 244.37 124.48 L 244.76 124.95 L 245.00 125.51 L 245.00 125.74 L 244.68 126.40 L 244.47 126.76 L 243.80 127.61 L 243.05 128.50 L 240.86 130.56 L 239.70 131.58 L 237.19 133.47 L 236.57 133.90 L 235.39 134.63 L 233.78 135.45 L 232.40 136.03 L 229.27 136.68 L 227.67 136.93 L 224.29 136.94 L 222.59 136.87 L 219.23 136.25 L 217.58 135.86 L 214.50 134.62 L 213.01 133.92 L 210.59 132.47 L 209.45 131.72 L 207.59 130.03 L 206.70 129.13 L 205.19 126.97 L 203.08 123.00 L 202.59 121.91 L 201.87 119.67 L 201.55 118.54 L 201.17 116.24 L 201.02 115.09 L 200.98 112.78 L 201.00 111.63 L 201.29 109.35 L 201.47 108.22 L 202.08 106.01 L 202.43 104.92 L 203.36 102.82 L 203.86 101.79 L 205.10 99.85 L 207.30 97.16 L 208.43 95.98 L 210.91 94.02 L 212.17 93.11 L 214.87 91.69 L 216.23 91.04 L 219.07 90.16 L 220.51 89.79 L 223.42 89.46 L 224.89 89.36 M 383.25 65.01 L 385.21 65.01 L 388.82 65.16 L 390.58 65.26 L 393.83 65.62 L 395.41 65.83 L 398.33 66.41 L 399.76 66.73 L 402.41 67.56 L 403.70 68.00 L 406.12 69.08 L 407.31 69.65 L 409.55 71.00 L 410.65 71.71 L 412.75 73.34 L 415.79 76.13 L 416.38 76.73 L 417.67 78.26 L 418.31 79.05 L 419.60 80.82 L 420.23 81.71 L 421.37 83.50 L 422.75 85.99 L 423.32 87.16 L 424.13 89.16 L 424.48 90.14 L 424.94 92.13 L 425.14 93.17 L 425.34 95.66 L 425.38 96.34 L 425.43 97.87 L 425.46 100.50 L 425.46 101.48 L 425.45 103.18 L 425.44 103.99 L 425.38 105.41 L 425.32 106.78 L 425.00 108.98 L 424.81 110.04 L 424.16 112.06 L 422.69 115.50 L 421.80 117.42 L 419.35 121.07 L 418.03 122.86 L 414.92 126.08 L 413.30 127.62 L 409.76 130.20 L 404.19 133.11 L 403.08 133.54 L 400.83 134.20 L 399.67 134.50 L 397.04 134.95 L 395.63 135.15 L 392.21 135.45 L 391.28 135.51 L 389.22 135.63 L 385.75 135.77 L 373.00 136.24 L 373.00 65.00 M 444.68 90.29 L 445.09 90.37 L 445.64 90.60 L 446.00 90.98 L 446.00 91.13 L 446.17 91.33 L 446.28 91.41 L 446.66 91.45 L 448.57 90.98 L 449.24 90.72 L 450.73 90.37 L 451.49 90.23 L 453.10 90.10 L 454.73 90.02 L 458.05 90.45 L 459.67 90.75 L 462.54 91.86 L 463.21 92.17 L 464.35 92.91 L 465.73 94.18 L 465.98 94.48 L 466.23 95.03 L 466.31 95.31 L 466.17 95.91 L 466.05 96.22 L 465.48 96.97 L 464.08 98.42 L 463.48 98.99 L 462.54 99.78 L 462.10 100.11 L 461.36 100.46 L 461.00 100.58 L 460.31 100.53 L 459.17 100.09 L 458.22 99.58 L 456.15 99.07 L 455.11 98.89 L 453.04 99.02 L 452.04 99.16 L 450.23 99.89 L 448.07 101.63 L 447.60 102.24 L 446.95 103.50 L 446.81 103.86 L 446.58 104.72 L 446.48 105.18 L 446.32 106.34 L 446.25 106.97 L 446.16 108.53 L 446.11 109.37 L 446.06 111.45 L 446.03 112.56 L 446.01 115.27 L 446.00 120.13 L 446.00 136.00 L 437.00 136.00 L 437.00 90.00 L 442.74 90.00 M 192.00 136.00 L 183.00 136.00 L 183.00 60.00 L 192.00 60.00 M 144.13 64.12 L 144.28 64.39 L 144.74 65.35 L 145.00 65.90 L 145.67 67.38 L 146.02 68.18 L 146.87 70.13 L 147.32 71.17 L 148.32 73.55 L 148.85 74.79 L 150.00 77.55 L 150.59 78.98 L 151.87 82.08 L 152.52 83.66 L 153.90 87.04 L 155.30 90.49 L 158.34 98.03 L 159.88 101.88 L 163.08 109.95 L 164.69 114.01 L 167.90 122.23 L 172.57 134.31 L 172.72 134.71 L 172.78 135.26 L 172.75 135.50 L 172.28 135.77 L 171.97 135.87 L 170.78 135.92 L 167.98 135.81 L 162.71 135.50 L 160.65 129.72 L 158.59 123.95 L 144.19 124.22 L 129.80 124.50 L 125.39 135.50 L 120.20 135.80 L 119.57 135.84 L 118.53 135.89 L 118.04 135.91 L 117.27 135.93 L 116.57 135.93 L 115.83 135.75 L 115.55 135.62 L 115.49 135.10 L 115.52 134.79 L 115.89 133.80 L 116.32 132.66 L 117.35 130.01 L 117.88 128.63 L 119.07 125.56 L 119.69 123.99 L 121.01 120.59 L 121.69 118.86 L 123.13 115.22 L 124.58 111.53 L 127.66 103.75 L 129.21 99.85 L 132.28 92.13 L 133.79 88.34 L 136.60 81.34 L 137.28 79.67 L 138.53 76.57 L 139.13 75.07 L 140.23 72.37 L 140.76 71.08 L 141.66 68.87 L 142.09 67.83 L 142.78 66.18 L 143.09 65.44 L 143.52 64.44 L 143.85 63.77 L 143.88 63.73 M 42.99 63.09 L 43.06 63.28 L 43.05 63.48 L 43.00 63.94 L 42.93 64.27 L 42.76 65.01 L 42.63 65.47 L 42.34 66.47 L 42.14 67.07 L 41.73 68.34 L 41.47 69.07 L 40.93 70.61 L 40.62 71.48 L 39.96 73.28 L 39.58 74.29 L 38.79 76.36 L 38.36 77.50 L 36.75 81.69 L 35.43 85.12 L 34.67 87.10 L 33.08 91.23 L 32.21 93.50 L 30.42 98.18 L 29.46 100.67 L 27.52 105.74 L 26.50 108.38 L 24.46 113.70 L 23.43 116.40 L 19.26 127.27 L 17.26 132.50 L 16.52 134.42 L 14.50 130.48 L 16.09 122.86 L 17.31 117.73 L 18.30 114.17 L 18.89 112.32 L 20.13 108.56 L 20.84 106.62 L 22.31 102.69 L 23.13 100.66 L 24.84 96.56 L 25.78 94.44 L 27.72 90.18 L 28.77 87.99 L 30.94 83.56 L 32.11 81.30 L 34.50 76.72 L 35.78 74.38 L 37.33 71.57 L 38.27 69.90 L 38.69 69.16 L 39.51 67.75 L 39.87 67.14 L 40.57 66.00 L 40.87 65.53 L 41.44 64.66 L 41.68 64.32 L 42.12 63.71 L 42.30 63.51 L 42.62 63.17 L 42.73 63.10 L 42.93 63.02 M 304.97 98.12 L 303.45 98.35 L 301.95 98.64 L 299.18 99.89 L 297.86 100.61 L 295.58 102.58 L 294.52 103.64 L 292.89 106.18 L 292.17 107.51 L 291.35 110.45 L 291.21 111.20 L 291.10 112.75 L 291.07 113.54 L 291.23 115.13 L 291.33 115.93 L 291.77 117.55 L 292.75 119.98 L 293.22 120.91 L 294.48 122.57 L 295.15 123.36 L 296.75 124.72 L 297.59 125.35 L 299.45 126.38 L 300.40 126.85 L 302.41 127.52 L 303.44 127.81 L 305.53 128.10 L 306.57 128.20 L 308.64 128.08 L 309.67 127.97 L 311.63 127.43 L 312.59 127.10 L 314.36 126.10 L 315.56 125.31 L 317.47 123.36 L 318.35 122.34 L 319.63 120.04 L 320.19 118.85 L 320.83 116.33 L 321.07 115.06 L 321.09 112.48 L 321.03 111.19 L 320.43 108.67 L 320.05 107.44 L 318.85 105.14 L 318.17 104.03 L 316.36 102.10 L 312.98 99.75 L 312.17 99.35 L 310.55 98.77 L 309.74 98.51 L 308.13 98.23 L 307.33 98.12 L 305.75 98.10 M 494.94 98.00 L 493.21 98.23 L 492.36 98.38 L 490.77 98.88 L 490.00 99.16 L 488.57 99.90 L 487.88 100.30 L 486.62 101.25 L 485.40 102.25 L 483.52 104.75 L 482.68 106.06 L 481.59 109.00 L 481.15 110.50 L 480.92 113.63 L 480.92 115.20 L 481.64 118.27 L 481.88 119.03 L 482.55 120.48 L 482.91 121.20 L 483.84 122.56 L 484.34 123.22 L 485.53 124.44 L 487.64 126.10 L 488.16 126.44 L 489.36 126.99 L 489.98 127.24 L 491.34 127.61 L 492.74 127.93 L 495.78 128.03 L 497.31 128.00 L 500.27 127.40 L 501.69 127.02 L 504.10 125.73 L 505.11 125.06 L 506.88 123.28 L 507.71 122.34 L 509.06 120.18 L 509.67 119.06 L 510.49 116.70 L 511.00 113.14 L 511.00 112.20 L 510.66 110.34 L 510.43 109.41 L 509.69 107.62 L 509.27 106.73 L 508.18 105.06 L 507.60 104.25 L 506.24 102.76 L 505.52 102.05 L 503.94 100.82 L 503.13 100.24 L 501.38 99.31 L 500.50 98.90 L 498.66 98.34 L 495.86 98.00 M 382.00 75.00 L 382.00 126.00 L 389.25 125.99 L 390.63 125.99 L 392.95 125.87 L 394.06 125.79 L 396.02 125.48 L 396.97 125.29 L 398.76 124.75 L 399.65 124.45 L 401.50 123.63 L 402.73 123.06 L 404.95 121.78 L 406.02 121.12 L 407.91 119.67 L 408.82 118.92 L 410.40 117.29 L 411.15 116.46 L 412.42 114.64 L 413.02 113.71 L 413.98 111.70 L 414.42 110.67 L 415.08 108.45 L 415.38 107.32 L 415.74 104.89 L 415.97 101.00 L 415.97 99.03 L 415.48 95.37 L 415.15 93.58 L 414.02 90.30 L 413.37 88.72 L 411.65 85.86 L 410.72 84.49 L 408.44 82.10 L 407.23 80.97 L 404.44 79.08 L 402.98 78.20 L 399.71 76.85 L 398.02 76.25 L 394.32 75.47 L 388.32 75.00 M 10.57 122.42 L 10.53 122.33 L 10.50 122.20 M 9.55 112.42 L 9.57 114.38 L 9.60 115.23 L 9.67 116.83 L 9.72 117.52 L 9.84 118.86 L 9.92 119.45 L 10.22 121.08 L 9.98 120.11 L 9.86 119.52 L 9.72 118.19 L 9.65 117.50 L 9.58 115.86 L 9.56 114.99 L 9.54 112.90 L 9.54 109.12 L 9.54 109.08 M 52.01 102.50 L 51.24 104.49 L 49.75 108.34 L 49.01 110.24 L 47.62 113.83 L 47.06 115.26 L 57.97 87.10 M 144.07 89.00 L 143.90 89.24 L 143.80 89.40 L 143.52 89.92 L 143.22 90.52 L 142.36 92.43 L 141.89 93.49 L 140.80 96.15 L 139.00 100.69 L 138.38 102.30 L 137.23 105.29 L 136.67 106.73 L 135.72 109.18 L 135.29 110.31 L 134.65 111.95 L 134.52 112.30 L 134.33 112.79 L 134.17 113.19 L 134.14 113.24 L 134.31 113.35 L 134.42 113.40 L 134.84 113.50 L 135.32 113.60 L 136.92 113.76 L 137.82 113.84 L 140.09 113.94 L 144.02 114.00 L 145.18 114.00 L 147.12 113.99 L 148.03 113.98 L 149.51 113.95 L 150.20 113.93 L 151.28 113.87 L 151.77 113.83 L 152.50 113.72 L 152.82 113.66 L 153.26 113.50 L 153.44 113.42 L 153.63 113.20 L 153.78 112.96 L 153.57 112.25 L 152.49 109.29 L 150.34 103.63 L 149.81 102.26 L 148.81 99.70 L 148.32 98.45 L 147.40 96.19 L 146.96 95.11 L 146.18 93.24 L 145.81 92.36 L 145.19 90.97 L 144.90 90.34 L 144.48 89.51 L 144.11 89.00 M 223.64 98.00 L 221.27 98.52 L 220.09 98.85 L 217.81 99.95 L 216.70 100.56 L 214.71 102.13 L 212.27 104.90 L 211.77 105.65 L 210.97 107.27 L 210.61 108.08 L 210.14 109.57 L 209.96 110.27 L 209.92 111.31 L 209.95 111.53 L 210.08 111.82 L 210.44 112.00 L 210.47 112.00 L 210.77 111.91 L 210.97 111.85 L 211.57 111.65 L 212.24 111.42 L 214.34 110.68 L 215.48 110.27 L 218.32 109.25 L 219.80 108.71 L 223.10 107.50 L 224.78 106.89 L 227.88 105.72 L 229.36 105.16 L 231.86 104.20 L 233.01 103.75 L 234.63 103.10 L 234.96 102.96 L 235.42 102.75 L 235.76 102.57 L 235.87 102.46 L 235.68 102.11 L 235.52 101.92 L 234.87 101.47 L 234.50 101.23 L 233.52 100.72 L 232.99 100.46 L 231.79 99.94 L 230.56 99.43 L 227.95 98.59 L 227.33 98.41 L 226.20 98.16 L 224.79 98.00 M 10.01 98.59 L 10.06 98.14 L 10.06 98.12 M 10.08 98.00 L 10.26 96.74 L 10.26 96.73 M 10.34 96.43 L 10.91 94.07 L 12.35 89.50 L 10.91 94.06 M 268.29 65.13 L 269.11 65.53 L 270.70 66.62 L 271.39 67.13 L 272.42 68.29 L 272.88 68.88 L 273.46 70.13 L 273.70 70.76 L 273.85 72.03 L 273.88 72.65 L 273.63 73.85 L 273.46 74.43 L 272.84 75.48 L 272.48 75.98 L 271.51 76.80 L 270.98 77.17 L 269.67 77.68 L 267.37 78.00 L 266.75 78.00 L 265.72 77.87 L 265.23 77.77 L 264.41 77.43 L 264.01 77.23 L 263.32 76.63 L 262.99 76.30 L 262.36 75.42 L 261.82 74.60 L 261.36 72.87 L 261.23 72.01 L 261.55 70.31 L 261.81 69.47 L 262.86 67.95 L 265.22 66.05 L 265.84 65.70 L 266.76 65.28 L 267.19 65.12 L 267.92 65.09 M 59.20 34.48 L 59.43 35.35 L 59.89 37.39 L 60.11 38.45 L 60.49 40.49 L 60.11 38.44 L 59.88 37.38 L 59.43 35.35 L 59.20 34.48 L 58.73 32.84 L 58.50 32.19 L 58.73 32.84 Z" stroke-linecap="round"/>
</g>
		<g id="6I_VYTsJl0nBfJ4aH9RIh">
<path style="stroke: rgb(193,193,193); stroke-width: 0; stroke-dasharray: none; stroke-linecap: butt; stroke-dashoffset: 0; stroke-linejoin: miter; stroke-miterlimit: 4; fill: rgb(252,190,0); fill-rule: nonzero; opacity: 1;" transform="matrix(1.713735 0 0 1.713736 600 600) matrix(1 0 0 1 -284.86 9.695)  translate(-32.965, -113.395)" d="M 3.64 194.23 L 3.61 194.18 L 3.54 193.84 L 3.51 193.64 L 3.44 193.03 L 3.37 192.35 L 3.24 190.32 L 3.17 189.21 L 3.06 186.50 L 2.93 181.98 L 2.69 170.50 L 17.26 132.50 L 19.26 127.27 L 23.43 116.40 L 24.46 113.70 L 26.50 108.38 L 27.52 105.74 L 29.46 100.67 L 30.42 98.18 L 32.21 93.50 L 33.08 91.23 L 34.67 87.10 L 35.43 85.12 L 36.75 81.69 L 38.36 77.50 L 38.79 76.36 L 39.58 74.29 L 39.96 73.28 L 40.62 71.48 L 40.93 70.61 L 41.47 69.07 L 41.73 68.34 L 42.14 67.07 L 42.34 66.47 L 42.63 65.47 L 42.76 65.01 L 42.93 64.27 L 43.00 63.94 L 43.05 63.48 L 43.06 63.28 L 42.99 63.09 L 42.93 63.02 L 42.73 63.10 L 42.62 63.17 L 42.30 63.51 L 42.12 63.71 L 41.68 64.32 L 41.44 64.66 L 40.87 65.53 L 40.57 66.00 L 39.87 67.14 L 39.51 67.75 L 38.69 69.16 L 38.27 69.90 L 37.33 71.57 L 35.78 74.38 L 34.50 76.72 L 32.11 81.30 L 30.94 83.56 L 28.77 87.99 L 27.72 90.18 L 25.78 94.44 L 24.84 96.56 L 23.13 100.66 L 22.31 102.69 L 20.84 106.62 L 20.13 108.56 L 18.89 112.32 L 18.30 114.17 L 17.31 117.73 L 16.09 122.86 L 14.34 131.22 L 11.92 125.86 L 11.39 124.69 L 10.65 122.66 L 10.32 121.65 L 9.92 119.45 L 9.84 118.86 L 9.72 117.52 L 9.67 116.83 L 9.60 115.23 L 9.57 114.38 L 9.55 112.42 L 9.54 109.00 L 9.54 107.76 L 9.57 105.60 L 9.59 104.56 L 9.66 102.74 L 9.74 100.99 L 10.06 98.12 L 10.26 96.73 L 10.91 94.06 L 12.35 89.50 L 13.18 87.12 L 15.40 81.97 L 16.59 79.36 L 19.41 73.97 L 20.88 71.28 L 24.13 65.97 L 29.32 58.43 L 30.54 56.79 L 33.33 53.40 L 34.76 51.70 L 37.83 48.33 L 39.38 46.67 L 42.53 43.50 L 44.10 41.96 L 47.13 39.17 L 48.61 37.83 L 51.32 35.60 L 52.61 34.57 L 54.81 33.07 L 55.32 32.75 L 56.20 32.28 L 56.62 32.07 L 57.30 31.85 L 57.62 31.77 L 58.08 31.81 L 58.50 32.19 L 58.73 32.84 L 59.20 34.48 L 59.43 35.35 L 59.88 37.38 L 60.11 38.44 L 60.54 40.79 L 60.75 42.00 L 61.15 44.57 L 61.54 47.20 L 62.15 52.78 L 62.73 61.00 L 63.24 73.50 L 43.09 125.49 L 22.94 177.48 L 15.84 184.59 L 14.87 185.57 L 13.01 187.48 L 12.12 188.42 L 10.56 190.10 L 9.83 190.89 L 8.74 192.15 L 7.82 193.35 L 7.58 193.78 L 6.88 194.40 L 6.51 194.67 L 5.68 194.93 L 5.27 195.02 L 4.51 194.90 L 4.15 194.79 M 17.55 166.76 L 18.42 165.73 L 19.98 163.32 L 20.73 162.06 L 22.06 159.21 L 22.70 157.73 L 23.79 154.44 L 25.16 149.02 L 25.36 148.03 L 25.61 146.37 L 25.71 145.58 L 25.76 144.29 L 25.77 143.69 L 25.65 142.76 L 25.57 142.34 L 25.29 141.76 L 25.14 141.51 L 24.73 141.24 L 24.52 141.15 L 24.00 141.19 L 23.72 141.25 L 23.11 141.58 L 22.79 141.78 L 22.11 142.37 L 21.40 143.03 L 19.86 145.07 L 19.08 146.20 L 17.51 149.06 L 16.73 150.58 L 15.28 154.12 L 13.41 160.03 L 13.05 161.47 L 12.63 164.01 L 12.47 165.22 L 12.47 167.17 L 12.52 168.06 L 12.92 169.25 L 13.05 169.49 L 13.38 169.81 L 13.98 170.00 L 14.09 170.00 L 14.52 169.74 L 14.76 169.58 L 15.38 169.05 L 16.02 168.46 Z" stroke-linecap="round"/>
</g>
</g>
</g>

  </svg>